<svg width="160" height="44" viewBox="0 0 160 44" fill="none" xmlns="http://www.w3.org/2000/svg">
  <path d="M32.1 18.9C30.4 18.8 29 19.8 28.1 19.8C27.2 19.8 25.8 19 24.4 19C22.5 19.1 20.8 20.1 19.8 21.8C17.8 25.2 19.3 30.2 21.2 33C22.2 34.3 23.3 35.8 24.8 35.8C26.2 35.7 26.8 34.9 28.5 34.9C30.2 34.9 30.7 35.8 32.2 35.8C33.8 35.7 34.8 34.4 35.7 33.1C36.8 31.5 37.2 29.9 37.3 29.8C37.3 29.8 34.3 28.7 34.3 25.2C34.3 22.2 36.8 20.8 36.9 20.7C35.5 18.7 33.4 18.9 32.1 18.9Z" fill="white"/>
  <path d="M31 17.1C31.8 16.1 32.4 14.8 32.2 13.5C31 13.6 29.6 14.3 28.7 15.3C28 16.1 27.4 17.5 27.5 18.7C28.9 18.8 30.2 18.1 31 17.1Z" fill="white"/>
  <path d="M51 15H59.5C64.4 15 67.8 18.2 67.8 22.9C67.8 27.7 64.3 30.9 59.4 30.9H55.5V37H51V15ZM55.5 18.7V27.3H58.6C61.5 27.3 63.2 25.7 63.2 22.9C63.2 20.2 61.5 18.7 58.6 18.7H55.5Z" fill="white"/>
  <path d="M69.4 32.5C69.4 29.7 71.6 28 75.6 27.8L79.8 27.6V26.5C79.8 24.8 78.7 23.9 76.7 23.9C75 23.9 73.8 24.7 73.5 26H69.6C69.8 22.9 72.7 20.5 76.9 20.5C81.3 20.5 84 22.7 84 26.2V37H80V34.4H79.9C78.8 36.2 76.7 37.2 74.5 37.2C71.4 37.2 69.4 35.3 69.4 32.5ZM79.8 31.1V30L76.2 30.2C74.4 30.3 73.5 31 73.5 32.3C73.5 33.5 74.5 34.3 76.1 34.3C78.2 34.3 79.8 33 79.8 31.1Z" fill="white"/>
  <path d="M87.1 42.8V39.4C87.5 39.5 88.2 39.5 88.7 39.5C90.4 39.5 91.3 38.8 91.8 37.1L92.1 36.2L86 20.8H90.6L94.4 32.9H94.5L98.3 20.8H102.8L96.6 37.4C95.2 41.2 93.2 42.9 89.3 42.9C88.8 42.9 87.6 42.9 87.1 42.8Z" fill="white"/>
</svg>
